<?xml version="1.0" standalone="no"?>
<!DOCTYPE svg PUBLIC "-//W3C//DTD SVG 20010904//EN"
 "http://www.w3.org/TR/2001/REC-SVG-20010904/DTD/svg10.dtd">
<svg version="1.0" xmlns="http://www.w3.org/2000/svg"
 width="1170.000000pt" height="1170.000000pt" viewBox="0 0 1170.000000 1170.000000"
 preserveAspectRatio="xMidYMid meet">
<metadata>
Created by potrace 1.14, written by Peter Selinger 2001-2017
</metadata>
<g transform="translate(0.000000,1170.000000) scale(0.100000,-0.100000)"
fill="#000000" stroke="none">
<path d="M5654 9021 c-4 -4 -76 -8 -289 -15 -86 -3 -163 -11 -200 -22 -33 -9
-66 -16 -72 -17 -7 0 -13 -5 -13 -10 0 -5 -6 -4 -13 2 -8 6 -16 9 -18 7 -2 -2
-30 -7 -63 -10 -32 -4 -67 -11 -77 -17 -11 -5 -19 -7 -19 -3 0 3 -6 1 -14 -5
-7 -6 -21 -9 -30 -5 -9 3 -16 1 -16 -4 0 -6 -20 -10 -47 -10 -31 1 -63 -6 -88
-19 -22 -11 -62 -24 -90 -27 -27 -4 -68 -16 -90 -26 -22 -11 -54 -22 -72 -25
-18 -3 -45 -10 -60 -16 -15 -6 -53 -17 -83 -25 -57 -13 -114 -31 -215 -67 -33
-12 -62 -22 -65 -22 -3 0 -10 -3 -16 -7 -6 -4 -26 -10 -44 -13 -18 -3 -56 -17
-83 -30 -27 -13 -56 -21 -63 -18 -8 3 -30 -7 -49 -21 -19 -15 -35 -24 -35 -20
0 3 -7 1 -15 -6 -8 -7 -15 -9 -15 -5 0 4 -7 2 -15 -5 -8 -7 -15 -10 -15 -6 0
3 -9 -3 -20 -14 -11 -11 -26 -20 -34 -20 -8 0 -93 -41 -190 -90 -97 -50 -179
-91 -183 -91 -5 -1 -45 -19 -90 -40 -46 -21 -86 -39 -91 -39 -5 0 -19 -11 -32
-25 -13 -14 -28 -25 -33 -25 -12 0 -129 -72 -142 -87 -9 -11 -42 -26 -70 -33
-5 -1 -46 -27 -90 -58 -44 -30 -81 -53 -82 -51 -1 2 -12 -4 -23 -13 -11 -10
-44 -32 -74 -48 -30 -17 -60 -38 -66 -45 -7 -8 -18 -15 -25 -15 -8 0 -15 -4
-17 -8 -4 -11 -94 -74 -137 -96 -18 -10 -40 -25 -51 -34 -49 -46 -67 -60 -88
-71 -13 -7 -61 -41 -108 -77 -47 -36 -96 -70 -109 -76 -14 -6 -25 -14 -25 -17
0 -6 -98 -91 -173 -151 -11 -8 -25 -21 -32 -27 -8 -7 -17 -13 -22 -13 -4 0
-23 -14 -41 -31 -17 -16 -32 -27 -32 -24 0 3 -11 -4 -25 -17 -13 -13 -37 -33
-52 -45 -15 -13 -84 -77 -152 -143 -69 -66 -129 -120 -134 -120 -4 0 -30 -19
-57 -42 -61 -53 -590 -572 -590 -580 0 -3 -67 -73 -150 -156 -82 -83 -150
-154 -150 -158 0 -9 -46 -64 -112 -134 -32 -33 -58 -65 -58 -71 0 -6 -11 -20
-24 -30 -16 -12 -28 -37 -35 -70 -6 -27 -18 -64 -27 -82 -24 -45 -25 -148 -3
-237 10 -41 21 -85 24 -97 3 -12 11 -28 18 -35 7 -7 23 -31 36 -53 13 -22 34
-53 47 -70 79 -97 124 -160 124 -172 0 -8 5 -11 10 -8 6 3 10 2 10 -3 0 -6 37
-48 83 -94 110 -113 157 -165 157 -175 0 -5 11 -17 25 -27 14 -10 25 -23 25
-28 0 -8 18 -29 112 -129 16 -17 28 -32 28 -35 0 -3 36 -40 80 -83 44 -42 80
-82 80 -89 0 -7 4 -12 9 -12 4 0 26 -18 47 -41 21 -22 81 -82 133 -132 52 -51
149 -147 216 -214 66 -68 126 -123 132 -123 6 0 10 -7 9 -16 0 -9 13 -24 29
-33 17 -9 42 -27 55 -40 14 -13 36 -30 50 -40 50 -33 190 -167 190 -182 0 -5
6 -9 13 -9 7 0 24 -13 37 -30 14 -16 33 -29 42 -30 9 0 19 -8 22 -18 3 -9 18
-23 33 -29 16 -7 40 -24 55 -38 15 -14 30 -25 33 -25 8 0 239 -192 243 -202 2
-5 9 -8 15 -8 11 0 60 -37 115 -87 14 -13 29 -23 33 -23 5 0 65 -38 134 -85
69 -47 128 -85 131 -85 6 0 62 -40 88 -62 11 -10 26 -18 33 -18 7 0 50 35 96
78 45 43 152 141 237 217 85 77 159 145 163 152 4 7 15 13 23 13 17 0 39 43
31 63 -5 13 -63 54 -172 123 -16 10 -50 29 -75 41 -24 13 -46 27 -50 31 -3 4
-12 12 -21 17 -56 35 -194 128 -204 138 -7 7 -32 28 -56 47 -23 19 -53 45 -66
57 -13 12 -23 19 -23 15 0 -4 -4 -2 -8 4 -4 6 -25 24 -48 40 -22 16 -67 49
-100 74 -32 24 -79 59 -104 76 -38 26 -120 101 -235 214 -12 11 -25 20 -29 20
-5 0 -18 10 -30 23 -11 12 -36 33 -55 46 -18 13 -58 47 -89 75 -89 81 -662
656 -717 720 -27 32 -70 80 -95 106 -79 85 -100 109 -100 115 0 7 -70 83 -153
167 -59 60 -80 104 -64 134 36 62 765 785 922 914 50 41 99 83 111 94 19 19
46 43 184 166 25 22 49 40 53 40 5 0 25 16 45 35 20 19 41 35 47 35 5 0 18 9
30 20 42 40 65 60 70 60 3 0 42 31 86 70 45 38 85 67 90 64 5 -3 9 -1 9 4 0 9
29 30 92 68 11 6 30 21 44 33 13 11 28 21 32 21 4 0 34 22 67 50 33 27 66 50
73 50 6 0 12 5 12 11 0 5 4 8 9 5 5 -3 14 1 21 9 14 17 135 105 145 105 3 0
43 24 88 54 46 30 96 60 112 67 17 8 44 23 60 35 17 12 47 27 67 33 20 7 42
19 48 27 7 7 17 14 23 14 5 0 24 11 41 24 17 13 36 24 41 25 6 1 17 8 25 15 8
7 34 22 57 34 63 32 87 46 94 55 3 5 9 8 13 8 3 -1 20 6 36 14 17 9 30 12 30
8 0 -5 4 -3 8 2 6 10 162 75 178 75 4 0 16 8 26 17 19 17 27 20 63 25 10 2 27
11 37 20 9 9 35 22 58 28 23 6 56 20 73 31 18 10 42 19 53 19 12 0 33 9 48 21
15 11 41 23 59 26 17 2 49 13 70 24 21 10 46 19 57 19 18 0 88 28 100 40 3 3
14 5 25 5 11 -1 36 5 55 13 19 8 44 16 55 18 52 10 66 13 73 17 10 7 78 18
127 21 36 3 102 23 115 36 3 3 30 6 60 6 69 2 106 9 134 27 14 10 55 15 126
16 69 1 132 8 185 22 75 19 97 20 370 14 365 -8 414 -11 440 -26 6 -4 27 -9
48 -13 20 -4 37 -10 37 -14 0 -4 30 -7 68 -6 37 0 72 -2 77 -5 6 -3 21 -6 35
-6 14 0 42 -9 63 -18 44 -21 58 -24 123 -28 27 -1 72 -13 101 -25 28 -12 66
-25 85 -28 38 -6 57 -11 78 -19 13 -5 54 -14 100 -21 9 -1 21 -6 29 -10 7 -5
34 -14 59 -21 26 -7 75 -24 109 -38 34 -14 64 -23 67 -20 3 3 19 -6 36 -21 18
-14 44 -28 58 -31 15 -3 44 -15 64 -25 20 -11 43 -20 51 -20 8 0 31 -11 51
-25 20 -13 36 -22 36 -18 0 3 7 0 15 -7 9 -7 18 -10 21 -7 4 3 21 -4 38 -17
17 -13 46 -28 64 -34 18 -6 46 -20 61 -32 16 -11 34 -20 40 -20 6 0 11 -5 11
-11 0 -5 4 -8 9 -5 5 3 20 -3 34 -14 14 -11 31 -20 39 -20 13 0 80 -33 153
-77 22 -13 59 -33 81 -43 23 -11 47 -27 54 -35 7 -8 18 -15 24 -15 6 -1 27
-14 46 -30 19 -17 41 -30 48 -30 8 0 22 -10 32 -22 10 -13 52 -41 94 -63 43
-22 85 -47 94 -55 9 -8 28 -21 42 -28 47 -24 186 -122 225 -159 8 -7 17 -13
22 -13 4 0 24 -18 43 -40 19 -22 40 -40 45 -40 6 0 25 -12 42 -27 18 -16 49
-41 70 -56 21 -15 58 -43 83 -62 25 -19 51 -35 58 -35 6 0 12 -4 12 -9 0 -5
13 -17 29 -28 16 -10 77 -64 136 -120 59 -57 113 -103 120 -103 8 0 16 -8 19
-18 4 -11 19 -25 34 -33 15 -8 44 -30 65 -49 148 -135 317 -301 317 -312 0 -4
5 -8 10 -8 6 0 39 -29 73 -65 34 -36 125 -130 202 -209 178 -184 225 -234 225
-241 0 -4 15 -21 33 -39 17 -19 55 -59 82 -91 65 -74 149 -166 202 -221 l42
-44 -17 -38 c-9 -21 -37 -55 -62 -77 -25 -22 -48 -44 -51 -48 -37 -50 -237
-258 -342 -355 -31 -29 -57 -57 -57 -63 0 -5 -3 -9 -8 -9 -4 0 -65 -56 -135
-125 -71 -69 -132 -125 -137 -125 -5 0 -12 -9 -15 -20 -3 -11 -10 -20 -15 -20
-5 0 -30 -20 -57 -45 -26 -25 -50 -45 -54 -45 -6 0 -46 -36 -171 -155 -26 -25
-50 -45 -53 -45 -3 0 -17 -10 -30 -22 -62 -57 -75 -68 -80 -68 -3 0 -38 -27
-79 -60 -41 -33 -78 -60 -83 -60 -4 0 -42 -32 -83 -70 -41 -39 -80 -70 -86
-70 -7 0 -15 -7 -18 -16 -3 -8 -10 -12 -16 -9 -5 3 -10 2 -10 -4 0 -6 -14 -18
-32 -27 -17 -9 -36 -20 -42 -25 -21 -18 -152 -110 -236 -167 -47 -31 -91 -62
-98 -69 -21 -20 -100 -73 -109 -73 -18 0 -83 -51 -83 -66 0 -8 23 -36 51 -62
28 -26 89 -84 136 -129 46 -46 87 -83 90 -83 3 0 30 -24 60 -54 29 -30 53 -53
53 -51 0 2 10 -6 23 -18 113 -108 128 -119 153 -113 13 4 33 15 44 26 11 11
23 20 26 20 3 0 11 6 18 13 15 14 27 21 116 79 36 22 86 58 111 80 26 21 52
38 57 38 6 0 15 6 19 14 4 8 25 24 46 36 20 12 37 26 37 31 0 5 7 9 15 9 8 0
15 5 15 10 0 6 6 10 13 10 8 0 24 11 37 25 13 14 28 25 34 25 6 0 43 29 81 65
39 35 73 64 76 65 3 0 25 18 50 40 24 22 47 40 51 40 4 0 13 6 20 13 26 23 97
77 103 77 3 0 19 12 34 28 16 15 35 32 43 39 7 6 31 31 54 55 22 23 65 64 95
91 30 26 64 56 76 67 12 11 27 20 32 20 6 0 15 8 20 18 6 9 11 13 11 8 0 -10
365 347 515 503 50 51 145 149 213 218 67 68 122 125 122 127 0 2 21 27 48 55
69 75 102 117 102 129 0 6 8 13 18 16 10 4 28 24 41 46 12 22 28 43 35 47 9 6
63 152 72 196 1 4 2 8 4 10 2 2 9 64 10 92 1 23 -9 64 -23 91 -8 16 -20 53
-27 82 -6 28 -18 55 -25 60 -6 4 -17 16 -23 28 -6 12 -26 39 -44 61 -18 23
-42 53 -53 68 -11 16 -31 43 -45 61 -14 18 -36 49 -50 69 -14 20 -31 42 -38
48 -7 7 -34 34 -60 60 -26 27 -64 65 -84 84 -21 20 -38 39 -38 43 0 4 -17 26
-37 48 -21 22 -51 56 -66 75 -16 19 -37 44 -48 55 -10 12 -19 24 -19 28 0 4
-49 56 -110 116 -60 60 -110 111 -110 114 0 6 -129 134 -336 335 -60 58 -122
122 -138 142 -16 20 -35 37 -42 37 -7 0 -15 8 -18 18 -3 10 -19 25 -35 35 -28
16 -50 34 -106 82 -13 12 -38 32 -56 45 -18 14 -44 38 -58 54 -26 29 -54 56
-115 111 -30 27 -146 116 -184 140 -8 6 -23 17 -31 25 -9 8 -34 29 -55 45 -61
47 -108 88 -137 118 -15 15 -34 27 -43 27 -8 0 -19 6 -23 13 -4 7 -24 24 -43
37 -19 14 -44 32 -54 42 -11 10 -23 18 -27 18 -8 0 -190 119 -199 131 -3 3
-24 16 -47 29 -24 13 -43 27 -43 32 0 4 -5 8 -11 8 -6 0 -27 16 -46 35 -19 19
-41 35 -48 35 -8 0 -27 12 -44 26 -17 14 -31 22 -31 18 0 -4 -12 4 -27 19 -16
14 -45 33 -67 42 -21 9 -55 27 -76 40 -21 13 -41 21 -44 17 -4 -3 -10 -2 -14
4 -4 6 -33 24 -65 40 -32 16 -67 37 -77 46 -11 10 -23 18 -28 18 -5 0 -29 13
-53 30 -24 16 -51 30 -58 30 -8 0 -31 11 -51 25 -20 14 -47 28 -60 30 -13 3
-26 8 -29 13 -8 13 -53 36 -72 37 -9 1 -26 11 -39 23 -13 12 -38 24 -56 28
-18 3 -42 15 -54 26 -12 11 -27 21 -33 22 -7 2 -19 6 -28 10 -9 4 -20 6 -25 5
-5 -2 -26 5 -48 14 -21 9 -42 14 -47 11 -5 -3 -9 0 -9 5 0 6 -8 11 -18 11 -10
0 -22 4 -28 9 -5 5 -23 12 -41 14 -18 3 -47 13 -65 22 -31 16 -41 19 -87 29
-10 2 -41 16 -69 30 -28 14 -58 26 -67 26 -9 0 -37 10 -63 22 -26 12 -56 22
-67 24 -48 6 -76 14 -102 28 -34 18 -76 29 -124 31 -20 1 -56 11 -80 22 -62
30 -87 36 -149 39 -59 2 -79 6 -96 16 -6 4 -22 9 -37 12 -15 2 -31 7 -37 11
-6 3 -45 8 -88 10 -42 2 -77 5 -77 5 0 1 -20 4 -45 6 -25 3 -85 9 -135 14
-103 11 -261 20 -320 19 -22 -1 -44 -1 -50 0 -42 3 -257 5 -261 2z"/>
<path d="M5855 7649 c3 -4 -8 -7 -23 -6 -27 0 -125 -10 -129 -14 -2 -1 -12 -3
-23 -4 -11 -1 -22 -4 -25 -5 -3 -1 -14 -4 -25 -5 -11 -1 -22 -4 -25 -5 -3 -1
-14 -4 -25 -5 -11 -1 -21 -4 -22 -5 -2 -1 -14 -4 -28 -6 -38 -5 -238 -72 -298
-99 -29 -14 -56 -25 -60 -25 -11 0 -160 -78 -227 -118 -102 -61 -273 -186
-288 -209 -4 -7 -15 -13 -22 -13 -8 0 -15 -7 -15 -15 0 -8 -4 -15 -8 -15 -5 0
-42 -34 -83 -76 -41 -42 -86 -89 -101 -104 -16 -15 -28 -33 -28 -39 0 -7 -4
-9 -10 -6 -5 3 -10 -1 -10 -9 0 -9 -4 -16 -10 -16 -5 0 -10 -5 -10 -10 0 -6
-9 -21 -21 -33 -18 -20 -97 -133 -124 -179 -53 -90 -65 -112 -65 -124 0 -8 -4
-14 -9 -14 -9 0 -27 -40 -22 -49 2 -2 -1 -7 -6 -10 -5 -3 -20 -32 -33 -63 -13
-32 -28 -58 -32 -58 -5 0 -6 -4 -3 -10 3 -5 -1 -23 -10 -40 -8 -16 -13 -30 -9
-30 4 0 2 -6 -4 -12 -5 -7 -13 -29 -18 -48 -11 -49 -11 -49 -14 -55 -1 -3 -4
-9 -5 -15 -1 -5 -3 -11 -5 -12 -1 -2 -3 -10 -5 -18 -2 -8 -7 -26 -10 -40 -3
-14 -8 -34 -10 -45 -3 -11 -7 -31 -11 -45 -3 -14 -7 -36 -9 -50 -2 -14 -7 -43
-10 -65 -22 -140 -25 -595 -4 -595 3 0 6 -8 6 -17 -1 -10 3 -43 7 -73 11 -68
10 -63 17 -75 3 -5 4 -20 3 -32 0 -13 3 -23 9 -23 6 0 8 -3 5 -6 -4 -3 -2 -20
3 -37 6 -18 12 -41 15 -52 7 -29 10 -38 18 -60 29 -76 36 -96 36 -100 0 -3 7
-22 16 -43 27 -63 36 -87 32 -88 -2 -1 6 -11 16 -23 11 -12 16 -21 12 -21 -4
0 2 -13 14 -30 12 -16 19 -30 16 -30 -3 0 10 -25 29 -55 19 -30 35 -59 35 -65
0 -5 5 -10 11 -10 5 0 7 -4 4 -10 -3 -5 -1 -10 5 -10 6 0 9 -4 6 -9 -4 -5 -2
-11 2 -13 5 -1 27 -30 50 -63 23 -33 54 -74 69 -92 l28 -32 24 20 c13 10 20
19 16 19 -4 0 5 10 21 22 16 13 46 40 66 60 20 21 41 38 47 38 6 0 11 7 11 15
0 8 9 15 20 15 11 0 19 4 17 8 -3 11 60 71 67 64 3 -3 6 2 6 12 0 9 5 14 10
11 6 -3 10 -2 10 4 0 5 15 23 33 40 106 101 127 123 122 131 -3 4 6 11 20 14
13 3 45 31 71 61 26 30 50 53 53 52 8 -2 40 26 137 121 46 45 84 81 84 78 0
-2 21 18 48 45 26 27 53 49 61 49 8 0 12 3 8 6 -3 3 20 29 51 57 31 28 72 66
90 84 17 18 32 31 32 29 0 -3 27 21 59 53 33 33 62 56 65 53 3 -3 6 2 6 12 0
9 5 14 10 11 6 -3 10 1 10 9 0 9 4 16 9 16 5 0 32 23 60 50 28 28 51 49 51 47
0 -2 24 19 53 47 146 139 188 176 205 176 9 0 36 -20 60 -44 23 -25 42 -42 42
-40 0 2 22 -18 49 -46 27 -27 54 -50 61 -50 6 0 8 -4 5 -10 -3 -5 -3 -10 2
-10 4 0 32 -23 62 -50 29 -28 58 -50 64 -50 6 0 8 -3 5 -6 -4 -3 12 -22 35
-42 23 -20 59 -54 80 -74 21 -21 39 -38 41 -38 2 0 29 -24 59 -52 30 -29 94
-89 141 -133 47 -44 113 -106 147 -137 33 -32 62 -58 63 -58 7 0 116 -110 116
-117 0 -5 19 -24 41 -43 23 -19 56 -50 74 -67 18 -18 38 -33 43 -33 6 0 18
-10 26 -22 9 -12 16 -20 16 -16 0 4 15 -8 32 -25 18 -18 31 -35 30 -39 -1 -5
3 -8 9 -8 7 0 28 -16 48 -35 53 -51 111 -105 158 -147 23 -20 39 -39 35 -42
-3 -3 0 -6 7 -6 6 0 34 -22 61 -49 l50 -49 30 34 c16 19 38 47 47 62 10 15 20
29 23 32 16 14 50 70 43 70 -4 0 0 5 10 11 9 5 17 14 17 19 0 5 11 26 25 46
37 54 140 271 137 287 -1 4 3 7 8 7 5 0 9 3 8 8 -3 10 23 85 35 100 5 6 7 12
3 12 -3 0 -1 12 5 28 6 15 13 41 16 57 3 17 8 35 13 40 4 6 6 18 5 28 -2 9 0
17 4 17 7 0 29 113 36 185 2 17 4 30 5 30 13 0 18 429 6 530 -11 103 -14 120
-16 120 -1 0 -3 11 -6 25 -10 57 -14 77 -23 114 -5 22 -8 44 -5 48 3 4 1 8 -4
8 -8 0 -32 76 -35 113 -1 9 -5 17 -9 17 -4 0 -8 6 -8 14 0 8 -5 27 -12 43 -6
15 -11 31 -10 36 1 4 -3 7 -9 7 -6 0 -9 7 -5 15 3 8 1 15 -4 15 -6 0 -9 4 -8
8 3 9 -120 259 -137 279 -5 7 -16 19 -23 28 -7 8 -9 15 -5 15 4 0 4 4 -2 8
-11 8 -75 100 -75 107 0 3 -8 13 -17 23 -10 10 -29 33 -43 51 -79 106 -210
236 -354 353 -11 10 -26 22 -33 28 -7 5 -17 10 -23 10 -5 0 -10 3 -10 8 0 4
-16 16 -35 26 -19 11 -35 22 -35 26 0 4 -18 15 -40 26 -22 10 -40 23 -40 27 0
5 -4 5 -10 2 -5 -3 -10 -1 -10 4 0 6 -6 11 -13 11 -7 0 -23 9 -35 20 -12 12
-22 18 -22 14 0 -3 -6 -1 -13 5 -8 6 -17 8 -20 4 -4 -3 -7 -1 -7 5 0 7 -7 12
-15 12 -8 0 -15 5 -15 12 0 6 -3 9 -6 5 -4 -3 -26 5 -50 18 -24 14 -44 23 -44
20 0 -2 -24 7 -54 20 -30 13 -57 21 -60 18 -3 -4 -6 0 -6 7 0 7 -3 11 -6 8 -3
-4 -22 1 -42 9 -36 15 -74 25 -99 26 -7 0 -13 4 -13 8 0 6 -48 17 -97 21 -13
1 -23 5 -23 9 0 3 -11 5 -25 4 -14 -2 -25 0 -25 4 0 4 -6 8 -12 8 -7 0 -38 3
-68 8 -30 4 -63 7 -73 7 -10 -1 -30 3 -43 9 -18 6 -23 6 -18 -2 4 -8 1 -8 -13
-1 -21 12 -365 13 -358 1z"/>
</g>
</svg>
